<?xml version="1.0" standalone="no"?>
<!DOCTYPE svg PUBLIC "-//W3C//DTD SVG 20010904//EN"
 "http://www.w3.org/TR/2001/REC-SVG-20010904/DTD/svg10.dtd">
<svg version="1.0" xmlns="http://www.w3.org/2000/svg"
 width="2113.000000pt" height="2432.000000pt" viewBox="0 0 2113.000000 2432.000000"
 preserveAspectRatio="xMidYMid meet">

<g transform="translate(0.000000,2432.000000) scale(0.100000,-0.100000)"
fill="#000000" stroke="none">
<path d="M7736 22242 c-299 -641 -339 -740 -424 -1053 -119 -433 -169 -844
-159 -1289 8 -352 44 -616 127 -936 140 -541 403 -1081 717 -1472 46 -57 83
-104 83 -106 0 -2 -26 1 -57 6 -132 20 -292 90 -427 186 -94 68 -250 220 -326
320 -30 39 -56 70 -57 68 -7 -7 311 -867 352 -951 75 -158 119 -312 151 -530
24 -164 24 -533 0 -740 -85 -731 -367 -1498 -726 -1977 -84 -111 -242 -264
-321 -311 -54 -32 -71 -37 -113 -35 -62 4 -82 28 -97 117 -14 75 -1 219 32
379 82 397 103 616 103 1037 0 366 -9 498 -55 765 -47 275 -139 602 -218 774
-33 72 -53 85 -30 19 24 -66 16 -277 -14 -424 -107 -514 -500 -1268 -1107
-2124 -252 -356 -386 -617 -459 -896 -48 -185 -56 -249 -55 -449 0 -199 15
-297 69 -466 37 -114 154 -344 229 -449 78 -108 240 -282 324 -348 l60 -47 -5
167 c-13 369 56 635 203 790 54 58 74 61 74 15 0 -43 28 -141 60 -210 45 -97
97 -169 195 -271 130 -135 266 -237 464 -349 l55 -30 -41 -11 c-83 -22 -148
-31 -237 -31 -121 0 -210 25 -295 81 l-35 23 20 -34 c30 -53 115 -135 171
-163 94 -48 165 -61 323 -61 206 1 408 43 669 141 239 89 530 310 760 578 418
486 722 1146 919 2000 l9 40 28 -60 c86 -188 127 -393 128 -640 1 -392 -107
-794 -338 -1255 -111 -221 -290 -514 -412 -673 -40 -52 -42 -57 -21 -53 302
62 486 119 684 208 372 168 685 431 892 747 70 107 143 250 179 350 l27 79 20
-31 c90 -150 276 -274 556 -373 12 -4 12 -7 -4 -16 -73 -41 -190 -24 -338 50
-110 55 -111 52 -21 -61 130 -162 346 -261 524 -241 l57 6 7 61 c20 180 161
462 339 682 170 208 304 467 381 735 70 244 102 532 85 765 -14 189 -16 175
24 175 190 0 298 -460 329 -1410 l12 -355 66 65 c182 180 307 481 353 853 l13
102 51 -105 c83 -171 112 -339 78 -456 l-15 -49 30 35 c82 95 160 322 195 565
22 148 25 568 6 755 -98 949 -422 1900 -888 2600 -297 446 -633 763 -999 941
-129 64 -178 79 -79 26 257 -139 462 -362 609 -662 128 -264 215 -605 246
-973 15 -184 7 -609 -15 -747 -27 -168 -57 -247 -70 -182 -2 12 -10 67 -16
122 -18 149 -80 387 -180 685 -80 239 -219 612 -205 550 3 -14 11 -79 17 -145
30 -311 -53 -899 -217 -1550 -136 -539 -323 -1084 -439 -1281 -91 -156 -210
-218 -314 -165 -88 45 -175 183 -208 328 -11 51 -15 105 -12 172 4 107 7 115
108 286 310 527 341 1204 95 2031 -171 572 -436 1151 -1036 2264 -525 974
-704 1352 -814 1715 -20 65 -38 121 -40 123 -6 7 -53 -152 -70 -239 -9 -46
-19 -149 -22 -229 -14 -345 61 -736 231 -1205 12 -33 -59 53 -121 145 -391
582 -506 1497 -337 2669 45 317 129 724 209 1015 18 67 32 122 31 123 -1 2
-132 -275 -290 -615z"/>
<path d="M13318 18258 c-431 -657 -577 -1348 -467 -2209 27 -212 28 -215 64
-153 53 93 134 193 161 200 61 16 61 -72 -1 -201 -163 -339 -198 -664 -102
-932 36 -100 64 -241 77 -383 37 -423 -108 -936 -386 -1365 l-19 -30 45 35
c77 59 229 211 295 295 247 316 424 748 490 1200 9 60 17 111 19 113 5 5 61
-69 79 -103 51 -102 66 -319 33 -501 -18 -101 -80 -333 -97 -365 -10 -19 -6
-19 40 7 136 77 295 232 374 365 97 165 132 314 131 559 -1 343 -72 605 -359
1320 -156 388 -192 492 -235 675 -85 358 -121 817 -101 1257 7 132 14 253 18
269 3 16 3 29 0 29 -3 0 -30 -37 -59 -82z"/>
<path d="M19860 13908 c-300 -27 -653 -114 -910 -223 -221 -93 -509 -267 -662
-401 l-77 -67 51 -101 c28 -55 52 -103 54 -105 2 -2 39 29 81 70 324 309 653
469 1013 494 246 18 528 -58 758 -202 124 -78 182 -124 309 -246 80 -78 116
-106 126 -100 7 4 95 73 195 152 l182 144 0 44 c0 72 -29 177 -66 240 -96 163
-297 268 -579 302 -104 13 -336 12 -475 -1z"/>
<path d="M15025 13633 c-469 -39 -938 -179 -1434 -427 -324 -163 -573 -320
-988 -624 -1103 -807 -1966 -1316 -2776 -1636 -523 -207 -911 -300 -1427 -341
-325 -25 -350 -24 -1220 45 -1246 99 -1531 114 -2190 114 -540 1 -647 -4 -905
-41 -202 -28 -448 -103 -484 -147 -7 -8 48 -10 197 -8 409 7 759 -45 1102
-163 104 -36 356 -152 348 -160 -2 -3 -71 2 -154 10 -573 54 -1394 46 -1944
-20 -752 -91 -1377 -302 -1779 -603 -104 -78 -251 -220 -326 -317 -64 -82
-130 -183 -124 -190 2 -2 38 23 80 54 82 63 209 143 332 210 83 46 107 50 30
5 -74 -42 -414 -267 -410 -270 2 -2 41 12 88 32 361 152 906 235 1454 221 790
-21 1646 -208 2555 -557 176 -68 166 -64 155 -53 -20 21 -192 111 -335 175
-282 127 -672 265 -1065 378 -99 28 -205 58 -235 67 l-55 16 45 14 c167 51
534 29 965 -58 486 -98 1203 -312 1885 -564 523 -193 816 -297 1030 -365 1592
-506 3226 -780 4645 -780 1390 1 2542 258 3427 766 428 246 806 561 1098 917
35 42 65 76 67 73 7 -6 -42 -127 -90 -221 -157 -312 -414 -589 -732 -790 -104
-66 -86 -67 75 -8 756 279 1433 1172 1634 2155 50 244 60 348 61 613 0 433
-58 707 -236 1105 -143 321 -250 487 -444 689 -373 389 -885 629 -1445 680
-106 10 -380 12 -475 4z m317 -358 c201 -26 409 -91 568 -176 41 -22 79 -44
84 -49 4 -5 -95 -8 -220 -8 -126 0 -276 -5 -334 -11 -605 -67 -1121 -279
-1716 -707 -163 -117 -322 -241 -664 -519 -626 -508 -940 -701 -1315 -810 -49
-14 -90 -24 -91 -22 -2 2 27 23 64 47 81 54 225 189 302 287 61 76 165 241
157 249 -2 3 -29 -15 -58 -39 -110 -89 -308 -233 -459 -332 -812 -537 -1616
-862 -2385 -966 -176 -24 -629 -38 -685 -21 l-35 10 42 1 c66 2 334 38 488 66
913 168 1794 521 2570 1030 77 51 205 146 285 211 925 761 1860 1393 2400
1622 309 130 675 181 1002 137z"/>
<path d="M17221 13292 c8 -11 62 -83 121 -160 361 -476 564 -884 593 -1195 5
-51 11 -77 19 -74 23 8 66 84 82 147 51 199 -55 591 -227 847 -119 176 -289
311 -527 419 -61 28 -72 31 -61 16z"/>
<path d="M6099 8247 c-65 -44 -99 -117 -99 -215 0 -45 21 -122 33 -122 2 0 1
27 -1 60 -3 44 0 66 12 85 22 33 39 33 26 0 -19 -51 20 -99 95 -116 47 -10 57
-9 91 7 55 27 76 72 71 151 -6 75 -31 120 -85 151 -51 28 -100 28 -143 -1z"/>
<path d="M7984 7835 c39 -143 31 -242 -24 -297 -38 -38 -55 -36 -34 4 11 22
15 47 11 81 -4 44 -10 56 -49 93 -54 51 -123 74 -220 74 -83 0 -130 -21 -181
-80 -19 -22 -41 -62 -48 -88 -21 -72 -16 -196 10 -264 26 -68 95 -148 160
-186 40 -23 57 -27 126 -27 94 0 125 14 192 82 48 50 116 180 133 258 19 81
14 193 -10 259 -22 57 -77 135 -66 91z"/>
<path d="M18367 7393 c-3 -4 9 -48 26 -98 26 -77 30 -105 30 -190 0 -121 -21
-192 -92 -310 -113 -187 -143 -280 -144 -450 -1 -237 83 -418 287 -620 115
-113 270 -225 287 -208 8 8 -7 33 -54 91 -73 89 -110 161 -132 254 -40 170 9
367 143 571 69 105 93 173 99 277 4 70 1 96 -17 150 -35 104 -40 103 -70 -12
-42 -165 -102 -287 -185 -383 -19 -22 -25 -25 -20 -10 47 142 59 214 59 350 0
122 -3 153 -27 240 -31 114 -143 348 -169 353 -9 2 -18 -1 -21 -5z"/>
<path d="M9804 7183 c0 -47 -4 -67 -17 -80 -17 -17 -17 -16 -11 14 9 45 -35
89 -98 98 -84 13 -138 -38 -138 -129 0 -84 43 -148 112 -166 72 -20 138 31
172 133 21 62 20 102 -3 152 l-18 40 1 -62z"/>
<path d="M13468 7132 c3 -46 0 -61 -15 -74 -17 -16 -18 -15 -18 24 0 50 -31
78 -97 85 -63 7 -102 -15 -123 -71 -56 -146 100 -292 208 -196 52 45 80 119
75 197 -2 37 -10 69 -18 78 -13 13 -15 7 -12 -43z"/>
<path d="M11735 7146 c-97 -31 -167 -95 -212 -191 -25 -53 -28 -71 -28 -160 0
-117 15 -155 87 -222 55 -50 103 -67 188 -68 179 0 306 149 220 258 -20 25
-20 25 0 20 30 -8 68 -58 76 -100 7 -35 0 -161 -12 -218 -6 -29 -6 -29 22 9
84 121 83 299 -3 474 -79 159 -214 239 -338 198z"/>
<path d="M18003 6615 c-56 -67 -109 -158 -135 -234 -33 -95 -32 -255 0 -361
30 -94 81 -192 154 -294 31 -44 55 -82 53 -84 -2 -2 -34 12 -70 33 -88 49
-162 125 -208 213 -34 64 -40 71 -58 62 -46 -25 -12 -150 70 -253 72 -90 169
-169 374 -304 285 -188 420 -356 444 -555 11 -85 31 -89 66 -11 79 177 77 346
-8 519 -43 87 -100 153 -208 237 -311 243 -461 574 -416 922 7 55 13 111 13
125 2 41 -29 35 -71 -15z"/>
<path d="M10771 5849 c-303 -33 -584 -244 -670 -504 -10 -33 -24 -95 -30 -138
-15 -104 -15 -3322 -1 -3421 37 -252 192 -450 444 -566 134 -62 199 -75 376
-75 207 0 321 31 474 129 70 45 71 43 71 -104 0 -95 -3 -110 -28 -160 -33 -64
-90 -127 -131 -145 l-29 -13 27 -17 c48 -32 100 -44 188 -45 71 0 98 4 141 24
155 68 225 207 214 421 -7 139 -47 260 -122 369 l-26 39 18 66 c17 63 18 154
18 1796 l0 1730 -23 75 c-46 147 -125 256 -270 372 -170 135 -395 194 -641
167z m271 -359 c116 -43 209 -126 256 -228 l27 -57 3 -1628 c2 -1603 2 -1628
-17 -1618 -40 22 -217 160 -253 197 -53 56 -97 157 -105 238 l-6 68 -30 -6
c-46 -9 -126 -65 -159 -110 -133 -184 -26 -409 321 -671 l104 -78 -24 -20
c-13 -11 -53 -34 -89 -51 -56 -26 -78 -31 -165 -34 -78 -3 -113 1 -161 16
-119 37 -222 125 -273 232 l-26 55 0 1705 0 1705 27 58 c56 119 201 226 333
246 77 12 177 3 237 -19z"/>
<path d="M17029 5794 c-14 -4 -12 -13 17 -55 18 -28 44 -81 56 -117 l23 -67 5
-1985 5 -1985 26 -62 c72 -166 216 -296 394 -355 60 -20 90 -23 215 -23 166 1
221 14 345 87 146 86 238 211 271 368 38 178 -14 288 -168 360 -88 41 -194 45
-275 10 l-51 -22 38 -34 c115 -104 120 -272 11 -366 -52 -45 -111 -61 -198
-56 -127 7 -200 64 -223 173 -7 34 -10 433 -8 1260 l3 1210 22 42 c61 114 221
160 342 98 45 -22 57 -34 74 -76 12 -27 24 -49 27 -49 4 0 25 13 47 29 58 42
78 89 78 186 0 137 -57 215 -187 257 -96 32 -299 28 -391 -8 -16 -6 -17 28
-17 449 0 498 0 499 -60 581 -38 51 -125 111 -191 130 -51 16 -202 28 -230 20z"/>
<path d="M1514 4801 c34 -54 22 -357 -25 -675 -103 -688 -112 -786 -98 -989
19 -274 96 -505 200 -602 l32 -30 -6 25 c-3 14 -11 77 -17 140 -17 185 0 351
66 637 161 702 148 1135 -42 1394 -32 44 -130 133 -110 100z"/>
<path d="M14320 4700 c-80 -11 -137 -28 -203 -61 -179 -88 -279 -205 -322
-375 -14 -54 -15 -216 -13 -1370 l3 -1309 23 -59 c32 -86 75 -148 148 -215
206 -188 524 -226 777 -94 92 48 210 164 255 249 55 107 74 226 50 322 -17 67
-101 150 -185 181 -71 26 -176 31 -239 11 -65 -21 -68 -27 -29 -72 49 -58 68
-104 73 -176 11 -158 -92 -250 -267 -240 -100 6 -160 39 -205 112 -30 48 -30
48 -34 232 -3 101 -1 258 3 348 l7 164 147 4 c120 4 160 10 223 30 199 65 376
217 460 394 56 119 58 143 58 804 0 665 -1 673 -61 793 -45 90 -171 211 -269
259 -118 58 -278 86 -400 68z m165 -355 c67 -11 120 -48 149 -107 l26 -52 0
-610 0 -611 -29 -60 c-34 -72 -101 -136 -179 -173 -51 -24 -69 -27 -169 -27
-61 0 -115 4 -120 8 -4 5 -8 338 -8 740 0 730 0 732 22 772 25 47 55 76 102
100 37 19 114 34 146 29 11 -1 38 -6 60 -9z"/>
<path d="M19155 4700 c-255 -35 -468 -212 -520 -431 -21 -92 -23 -2615 -1
-2696 43 -162 145 -282 310 -365 187 -94 437 -91 629 9 95 50 210 164 255 253
62 125 77 273 34 356 -73 141 -285 207 -446 140 l-37 -15 37 -37 c127 -128
107 -331 -40 -400 -40 -18 -68 -24 -126 -24 -114 1 -187 39 -233 125 -21 38
-22 54 -25 388 l-3 347 123 0 c68 0 153 7 190 15 252 53 475 246 560 485 l23
65 0 655 0 655 -23 66 c-55 159 -184 294 -348 362 -102 43 -249 62 -359 47z
m194 -362 c59 -15 125 -79 140 -135 8 -30 11 -222 9 -650 l-3 -608 -29 -53
c-38 -67 -102 -127 -174 -160 -46 -21 -76 -27 -152 -30 -53 -2 -107 1 -122 7
l-28 11 0 704 c0 459 4 722 11 754 19 90 94 155 198 171 50 8 82 6 150 -11z"/>
<path d="M12050 4645 c0 -2 16 -34 36 -70 74 -135 68 -13 74 -1490 l5 -1330
29 -75 c35 -92 55 -126 123 -212 81 -102 211 -187 368 -239 68 -23 83 -23 468
-27 328 -3 398 -1 391 10 -5 7 -21 32 -36 55 -16 23 -39 68 -51 100 l-22 58 0
1490 c0 1443 1 1492 19 1549 11 32 37 85 58 117 21 33 38 62 38 64 0 7 -586 6
-603 -1 -13 -4 -9 -14 18 -49 18 -25 44 -70 57 -102 l23 -58 3 -1449 2 -1448
-112 4 c-95 3 -122 8 -168 29 -67 31 -163 118 -193 173 l-22 41 -5 1295 -5
1295 -33 67 c-18 36 -49 81 -69 99 -54 47 -153 90 -231 100 -73 9 -162 12
-162 4z"/>
<path d="M15270 4645 c0 -3 11 -21 25 -39 43 -57 74 -149 86 -253 6 -65 9
-571 7 -1503 -3 -1238 -6 -1411 -19 -1455 -18 -55 -51 -125 -81 -168 l-19 -27
305 0 c168 0 306 2 306 5 0 3 -14 24 -30 47 -17 23 -40 71 -53 107 l-22 66 -3
1436 -2 1436 57 5 c204 18 371 -75 432 -237 21 -55 21 -65 21 -1321 0 -1097
-2 -1274 -15 -1332 -14 -60 -46 -126 -91 -189 l-16 -23 311 0 312 0 -24 33
c-27 35 -63 104 -81 152 -7 21 -12 431 -16 1355 -6 1475 -1 1363 -75 1510 -70
139 -178 239 -340 316 -154 72 -190 77 -607 82 -203 2 -368 1 -368 -3z"/>
</g>
</svg>
